<svg width="20" height="20" viewBox="0 0 20 20" fill="none" xmlns="http://www.w3.org/2000/svg">
<path d="M17.8919 15.8333V4.16663C17.8919 2.49996 17.0586 1.66663 15.3919 1.66663H12.0586C10.3919 1.66663 9.55859 2.49996 9.55859 4.16663V15.8333C9.55859 17.5 10.3919 18.3333 12.0586 18.3333H15.3919C17.0586 18.3333 17.8919 17.5 17.8919 15.8333Z" stroke="#969FB7" stroke-linecap="round"/>
<path d="M9.55859 5H13.7253" stroke="#969FB7" stroke-linecap="round"/>
<path d="M9.55859 15H12.8919" stroke="#969FB7" stroke-linecap="round"/>
<path d="M9.55859 11.625L13.7253 11.6667" stroke="#969FB7" stroke-linecap="round"/>
<path d="M9.55859 8.33337H12.0586" stroke="#969FB7" stroke-linecap="round"/>
<path d="M4.57409 1.66663C3.21576 1.66663 2.10742 2.77496 2.10742 4.12496V14.925C2.10742 15.3 2.26576 15.8666 2.45742 16.1916L3.14076 17.325C3.92409 18.6333 5.21576 18.6333 5.99909 17.325L6.68242 16.1916C6.87409 15.8666 7.03242 15.3 7.03242 14.925V4.12496C7.03242 2.77496 5.92409 1.66663 4.57409 1.66663Z" stroke="#969FB7" stroke-linecap="round"/>
<path d="M7.03242 5.83337H2.10742" stroke="#969FB7" stroke-linecap="round"/>
</svg>
