<svg width="60" height="60" viewBox="0 0 60 60" fill="none" xmlns="http://www.w3.org/2000/svg">
<g clip-path="url(#clip0_605_5279)">
<path fill-rule="evenodd" clip-rule="evenodd" d="M40.896 20.148C39.9623 19.3294 38.6194 19.3481 37.8489 19.5859C38.3537 18.9661 39.5292 18.4579 39.8757 18.3963C40.1395 18.4952 40.896 19.2727 40.896 20.148ZM43.8772 16.7582C43.2632 13.4735 35.6294 15.6499 31.7851 14.2547C31.7114 15.2123 32.9686 16.7465 34.1711 17.3144C32.1155 19.0983 30.2701 22.6926 29.8977 27.0838C29.5265 22.6926 27.6809 19.0983 25.6255 17.3144C26.8279 16.7465 28.0861 15.2123 28.0115 14.2547C24.1671 15.6499 16.5333 13.4735 15.9181 16.7582C15.7888 17.4534 16.1232 18.5129 16.4846 18.8174C16.5492 18.5971 16.8867 17.8764 17.9508 17.7148C23.3291 16.9022 27.8193 25.1912 23.7662 28.5427C23.7044 28.5935 23.739 28.6877 23.8228 28.6877H35.9746C36.0573 28.6877 36.0922 28.5935 36.0314 28.5427C31.9771 25.1912 36.4674 16.9022 41.8456 17.7148C42.9107 17.8764 43.247 18.5971 43.3119 18.8173C43.6732 18.5129 44.0076 17.4535 43.8772 16.7582ZM45.1853 9.21924C45.0887 8.90892 48.2422 8.90115 48.2422 10.8749C48.2422 12.1977 46.3559 12.8243 46.3559 14.197C46.3559 14.8363 47.0437 15.3053 47.2548 15.3053C46.769 13.1014 48.7779 14.2547 49.3203 14.6669C48.2423 11.7031 50.6692 11.7218 50.4302 10.3629C50.264 9.41309 48.1547 9.70002 47.3912 9.21924C46.0365 8.36649 44.4339 5.0483 43.3777 8.36649C45.3467 10.1945 44.201 12.885 41.7015 12.885C41.7015 12.885 41.6875 13.2795 41.7104 13.3108C44.6917 13.1649 45.7308 10.9739 45.1853 9.21924ZM10.4036 14.6669C10.9462 14.2547 12.9548 13.1014 12.4702 15.3053C12.6801 15.3053 13.3679 14.8363 13.3679 14.197C13.3679 12.8243 11.4816 12.1977 11.4816 10.8749C11.4816 8.90106 14.6351 8.90892 14.5385 9.21924C13.994 10.9738 15.0334 13.165 18.0145 13.3108C18.0364 13.2795 18.0225 12.885 18.0225 12.885C15.524 12.885 14.3782 10.1944 16.3462 8.36649C15.29 5.0483 13.6874 8.36649 12.3328 9.21924C11.5694 9.70011 9.45997 9.41309 9.29373 10.3629C9.05573 11.7218 11.4816 11.7032 10.4036 14.6669ZM18.8686 20.1479C19.8032 19.3293 21.1461 19.348 21.9156 19.5858C21.4129 18.966 20.2354 18.4578 19.8899 18.3962C19.6261 18.4951 18.8686 19.2726 18.8686 20.1479ZM31.3162 1.77314L29.8619 0L28.4077 1.77314L29.862 3.63927L31.3162 1.77314ZM39.6179 7.13475L38.5837 5.87457L37.5505 7.13475L38.5837 8.3664L39.6179 7.13475ZM48.0063 43.5589L46.6953 42.1715L45.3844 43.5589L46.6953 44.7759L48.0063 43.5589ZM22.1743 7.13456L21.14 5.87438L20.1068 7.13456L21.14 8.3663L22.1743 7.13456ZM19.2119 13.3107H23.0692C26.3121 13.3107 27.7715 11.3202 28.2124 9.59402H31.5123C31.9533 11.3203 33.4114 13.3108 36.6556 13.3108H40.5129C40.5129 13.3108 41.1876 12.3953 41.3568 11.9421C41.9661 10.3108 41.1876 9.55005 40.0518 9.55005L38.5836 10.8807L37.1154 9.55005C35.9796 9.55005 35.2012 10.3108 35.8105 11.9421C35.8881 12.1507 36.0743 12.457 36.2504 12.7262C34.8817 12.5382 33.1347 11.6013 32.7514 9.59402C32.7514 9.59402 33.7627 7.98741 34.0166 7.3373C34.9285 4.99937 33.7639 4.04361 32.0607 4.04361L29.8618 6.62853L27.6631 4.04361C25.9599 4.04361 24.7953 4.99927 25.7081 7.3373C25.961 7.9875 26.9733 9.59411 26.9733 9.59411C26.5891 11.6014 24.8421 12.5383 23.4734 12.7263C23.6506 12.4571 23.8358 12.1507 23.9134 11.9421C24.5215 10.3109 23.7452 9.55014 22.6083 9.55014L21.1402 10.8808L19.672 9.55014C18.5353 9.55014 17.7588 10.3109 18.3671 11.9421C18.5363 12.3954 19.2119 13.3107 19.2119 13.3107ZM59.0911 25.2674C58.3464 25.6444 53.9787 27.6907 48.3834 26.9338C48.4414 26.6669 48.4905 26.3981 48.5308 26.128C52.2546 25.6825 55.2817 25.051 57.2108 23.9779C59.4097 22.7541 60.3712 19.8325 59.2613 17.6589C59.2326 17.6041 59.153 17.5943 59.1131 17.6402C58.505 18.3403 54.6805 22.5005 48.6553 23.7938C48.6399 23.4818 48.6113 23.1705 48.5697 22.8608C51.4961 21.2011 54.3531 19.2889 55.7138 17.5404C57.7704 14.8967 57.5812 11.5248 55.6243 9.80545C55.604 9.78802 55.5771 9.78019 55.5506 9.78395C55.5241 9.78771 55.5005 9.8027 55.4858 9.8251C54.8668 10.8462 49.0715 20.2132 42.7088 24.2568C42.6312 24.3065 42.5529 24.3552 42.474 24.4028C42.2917 24.5134 42.2719 24.7503 42.4272 24.8913C43.1607 25.5561 43.6167 26.4814 43.6167 27.5085C43.6167 29.2943 42.24 30.7795 40.4204 31.1017C39.4956 31.2808 38.1606 31.2289 36.8786 30.8051C36.8209 30.7864 36.7612 30.8245 36.7612 30.8824V36.5387C36.7612 36.6296 36.8996 36.6521 36.9324 36.5649C37.7117 34.5001 40.0449 34.0613 41.0653 34.0613C41.4326 36.2683 42.0885 38.0963 42.9406 39.0803C44.328 40.6791 46.5937 40.6567 47.5763 39.5512C47.5925 39.5329 47.5994 39.5082 47.5951 39.4841C47.5909 39.4601 47.5758 39.4393 47.5543 39.4277C46.977 39.096 43.6742 37.0683 43.0131 33.7452C43.2741 33.6551 43.5288 33.5532 43.7728 33.4327C44.8388 35.1972 46.3906 36.7686 47.6399 37.3688C49.7383 38.3754 51.6594 37.8858 52.5114 36.4123C52.5423 36.3604 52.5045 36.2957 52.4417 36.2899C51.1438 36.1861 47.1601 35.0444 45.4639 32.2629C45.6581 32.0845 45.8482 31.8985 46.0254 31.7008C47.8001 33.0519 50.3097 34.2464 52.1064 34.4902C54.2086 34.7761 56.5907 34.1054 56.6485 31.6606C56.6495 31.6116 56.6057 31.5715 56.554 31.5746C55.8063 31.6195 50.8582 31.8349 47.3324 29.8111C47.4548 29.5782 47.569 29.3411 47.6748 29.1002C47.6748 29.1002 53.0023 30.3595 55.5266 29.9422C58.0351 29.5282 59.5044 27.6581 59.2206 25.3319C59.2127 25.2739 59.1449 25.24 59.0911 25.2674ZM12.0489 29.1005C12.1549 29.3414 12.2695 29.5785 12.3923 29.8113C8.86759 31.8342 3.92136 31.6207 3.17086 31.5749C3.1181 31.5718 3.07431 31.6139 3.07525 31.6619C3.13419 34.1057 5.51515 34.7763 7.61732 34.4905C9.4132 34.2467 11.9236 33.0522 13.6984 31.7011C13.8766 31.8988 14.0658 32.0848 14.2597 32.263C12.5626 35.0444 8.58 36.1862 7.28193 36.29C7.21925 36.2958 7.18239 36.3604 7.21233 36.4124C8.06442 37.8859 9.98556 38.3754 12.0849 37.3689C13.3332 36.7687 14.885 35.1973 15.9512 33.433C16.1959 33.5533 16.4507 33.6552 16.7105 33.7453C16.0496 37.0684 12.7468 39.0961 12.1694 39.4278C12.1481 39.4396 12.1332 39.4604 12.129 39.4843C12.1247 39.5083 12.1315 39.5329 12.1475 39.5513C13.13 40.6567 15.3967 40.6792 16.7841 39.0804C17.6364 38.0963 18.2912 36.2684 18.6585 34.0615C19.6798 34.0615 22.012 34.5003 22.7914 36.565C22.8253 36.6522 22.9635 36.6296 22.9635 36.5387V30.8824C22.9635 30.8246 22.9029 30.7865 22.8452 30.8051C21.5631 31.2289 20.2283 31.2809 19.3045 31.1017C17.484 30.7796 16.1073 29.2944 16.1073 27.5085C16.1073 26.4813 16.5641 25.5551 17.2968 24.8903C17.453 24.7502 17.4321 24.5133 17.2509 24.4027C17.1714 24.355 17.0924 24.3064 17.014 24.2567C10.6553 20.2152 4.86298 10.855 4.23888 9.82688C4.20988 9.77888 4.14028 9.76915 4.09743 9.80629C2.14345 11.5266 1.95334 14.8975 4.00986 17.5402C5.37061 19.2887 8.2273 21.201 11.1529 22.8606C11.1117 23.1703 11.0834 23.4815 11.0684 23.7935C5.04813 22.5012 1.22671 18.3477 0.61252 17.6429C0.57173 17.5949 0.489963 17.6047 0.462178 17.6595C-0.645509 19.8341 0.315952 22.7538 2.51289 23.9777C4.44199 25.0507 7.46904 25.6822 11.1929 26.1277C11.2331 26.3979 11.2822 26.6666 11.3401 26.9335C5.75091 27.6894 1.385 25.6481 0.634505 25.2681C0.578747 25.2397 0.511013 25.275 0.50409 25.3337C0.221555 27.6601 1.68961 29.5282 4.19809 29.9422C6.72145 30.3595 12.0489 29.1005 12.0489 29.1005ZM46.6953 46.5627L44.7542 45.0353C43.9797 45.4965 43.4104 46.229 43.1894 47.0876C42.0218 47.2511 38.8384 46.5442 39.1478 46.0753C42.6369 41.168 39.9681 38.2464 36.761 38.4089V41.7047C36.761 42.763 35.8372 43.6207 34.6994 43.6207H32.4848C30.896 43.6207 29.8618 45.2176 29.8618 45.2176C29.8618 45.2176 28.8277 43.6207 27.239 43.6207H25.0242C23.8856 43.6207 22.9638 42.763 22.9638 41.7047V38.409C19.7566 38.2466 17.0858 41.1682 20.5758 46.0754C20.8824 46.5395 17.6104 47.2827 16.0756 47.0946C15.6714 46.6755 15.088 46.4112 14.435 46.4112C14.1574 46.4113 13.8821 46.4607 13.6217 46.5571C13.6217 46.5571 7.59066 40.847 7.48017 40.7912L7.52994 40.6756C7.87329 40.0334 7.34779 39.3333 7.01539 39.3824C7.40149 38.9193 7.41955 36.8915 5.27734 36.4225C5.34002 36.8298 5.37183 37.6611 5.37183 37.6611C5.37183 37.6611 3.71853 36.7671 2.88833 37.5386C2.15879 38.4023 3.17114 39.9688 3.17114 39.9688C3.17114 39.9688 2.32504 39.9893 1.90797 39.9541C2.52122 42.0278 4.57774 41.8809 5.02268 41.4717C4.99368 41.8017 5.73744 42.2716 6.36744 41.8946L6.64417 41.7605C6.69301 41.826 12.5669 47.3756 12.5669 47.3756C12.2971 47.7761 12.1688 48.2676 12.2573 48.7914C12.3967 49.61 13.0787 50.2885 13.9497 50.4646C14.5647 50.5881 15.143 50.4686 15.6069 50.1973L17.1618 51.6406C17.3002 51.766 17.4873 51.8442 17.6962 51.8296C18.0765 51.8041 18.3612 51.4956 18.3324 51.1423C18.3204 50.9826 18.2389 50.8457 18.1263 50.7418C18.1014 50.7143 16.5426 49.2672 16.5426 49.2672C17.8285 48.3654 20.2246 47.7301 22.2133 47.7301C22.5628 47.7301 22.7269 47.4345 22.6065 47.1445C21.7056 44.9778 23.6428 43.4084 25.6465 44.6861C26.5206 45.2432 27.4085 46.3408 28.0774 48.1716C24.7895 48.9678 20.6616 51.1607 19.8265 53.5547C19.5049 54.4791 20.5671 55.7391 21.8571 55.9928C21.8799 55.9978 21.9038 55.9935 21.9235 55.9808C21.9431 55.9681 21.9568 55.948 21.9616 55.9251C22.6355 52.3514 26.4788 49.6881 28.4786 49.2358C28.5792 49.505 28.5462 49.4179 28.6468 49.6862C26.4688 50.7162 24.3566 52.8888 23.7533 55.4716C23.4766 56.6544 24.7955 57.7206 25.8845 58.0125C25.9392 58.0271 25.993 57.9889 25.996 57.9361C26.2031 54.6698 27.6454 51.896 28.9374 50.634C28.9728 50.8806 28.9994 51.1285 29.0171 51.3771C29.0171 51.3771 27.6942 55.0634 27.6942 57.753C27.6942 59.0042 29.5536 59.8776 29.8284 60C30.1717 59.8776 32.0302 59.0042 32.0302 57.753C32.0302 55.0633 30.7073 51.3771 30.7073 51.3771C30.7254 51.1285 30.7523 50.8806 30.788 50.634C32.079 51.896 33.5223 54.6688 33.7284 57.935C33.7314 57.9879 33.7861 58.0271 33.8397 58.0124C34.9298 57.7207 36.2478 56.6545 35.972 55.4718C35.3677 52.8889 33.2565 50.7164 31.0785 49.6864C31.178 49.418 31.1452 49.5051 31.2457 49.2359C33.2466 49.6882 37.0889 52.3513 37.7628 55.925C37.7676 55.9479 37.7814 55.9679 37.801 55.9806C37.8206 55.9933 37.8445 55.9976 37.8674 55.9927C39.1563 55.7391 40.2204 54.479 39.8969 53.5548C39.0638 51.1608 34.9348 48.9679 31.647 48.1717C32.3169 46.3408 33.2047 45.2433 34.0787 44.6861C36.0815 43.4085 38.0185 44.978 37.1177 47.1448C36.9972 47.4345 37.1604 47.7301 37.5109 47.7301C39.7604 47.7301 42.5316 48.5428 43.6284 49.6326C44.3294 50.6841 45.6243 51.3568 47.0857 51.2127C48.746 51.0503 50.0998 49.8028 50.2869 48.2609C50.4502 46.9097 49.7514 45.6965 48.6375 45.0357L46.6953 46.5627ZM32.3881 36.7198C33.08 36.4634 34.164 36.671 34.1271 37.6696C34.1182 37.8957 34.4359 37.8957 34.4587 37.6646C34.6657 36.1696 33.6553 35.7387 32.5983 35.914C32.4669 35.3999 32.3594 34.9506 32.237 34.5051C32.1395 34.1449 32.1035 33.4682 32.5207 33.4682C32.7457 33.4682 32.6551 34.0978 32.6343 34.3689C32.6153 34.6069 32.7009 34.7508 32.8941 34.7577C33.0146 34.7625 33.1649 34.6089 33.2545 34.5069C33.8598 33.8226 34.0001 32.7633 33.2913 32.2523C32.6982 31.8233 31.2129 32.1425 30.8046 32.7534C30.7431 32.5233 30.4484 32.1435 30.3069 31.9779C30.1697 31.8165 30.1339 31.7058 30.324 31.5639C30.4136 31.4953 30.6843 31.2262 30.6843 30.948C30.6843 30.7836 30.5569 30.48 30.1518 30.48C29.8322 30.48 29.4769 30.7013 29.4769 31.1947C29.4769 31.3045 29.5038 31.4221 29.5744 31.5484C29.3723 31.515 28.8239 31.5287 28.5422 31.5982L32.4373 42.287C33.5521 41.7367 34.3693 40.8654 34.3693 39.9304C34.3693 39.1333 33.1956 39.3977 32.6253 40.0195C32.4421 39.0091 32.2789 38.076 32.1007 37.1457C32.0521 36.8892 32.1821 36.7972 32.3881 36.7198ZM26.8806 29.459L27.6988 31.7324C26.9981 31.8989 25.8713 32.4099 25.8713 33.0864C25.8713 33.9873 27.4649 34.5737 28.3867 34.5032C28.3409 34.7088 28.3937 34.8919 28.5371 35.0593C28.2026 35.0593 27.5716 35.215 27.3644 35.4382C26.8757 34.9829 26.1112 34.8174 25.7478 35.0946C25.3826 35.3736 25.3717 35.8465 25.7529 36.3811C26.0186 36.7512 26.1182 37.1165 25.8196 37.5452C26.9304 37.5452 26.5212 36.1011 26.9563 36.1011C26.8996 36.3811 26.9344 36.7052 27.0609 37.0645C27.1445 37.3034 27.1445 37.4728 27.0012 37.7029C26.6429 38.2757 26.0855 39.5915 26.1611 40.7812C25.7968 40.7791 25.6116 40.69 25.7401 40.1927C25.7878 40.0075 25.6734 39.8754 25.5221 40.1036C25.3548 40.3552 25.2742 40.785 25.2742 40.9689C25.2742 42.0284 26.5362 42.2418 27.018 42.0177C28.4117 43.3663 31.1491 43.0066 32.0658 42.5542L27.2461 29.3295C27.1475 29.0799 26.794 29.1995 26.8806 29.459ZM26.7133 40.3523C26.6138 39.8078 27.3713 38.8347 28.3349 37.8958C28.1298 38.5076 28.2572 39.5622 28.6593 39.9254C27.9605 39.9254 27.1303 40.0566 26.7133 40.3523Z" fill="#969FB7"/>
</g>
<defs>
<clipPath id="clip0_605_5279">
<rect width="60" height="60" fill="white"/>
</clipPath>
</defs>
</svg>
