<svg width="43" height="42" viewBox="0 0 43 42" fill="none" xmlns="http://www.w3.org/2000/svg">
<path d="M31.3598 0L21.625 9.21256V19.6472L31.3598 10.0116V0Z" fill="#E9EAED"/>
<path d="M20.6373 9.21256L10.8555 0V10.0116L20.6373 19.6472V9.21256Z" fill="#E9EAED"/>
<path d="M22.4727 21.1982L32.1134 30.9748H42.1303L32.9128 21.1982H22.4727Z" fill="#E9EAED"/>
<path d="M32.9128 20.2115L42.1303 10.4819H32.1134L22.4727 20.2115H32.9128Z" fill="#E9EAED"/>
<path d="M9.30339 21.1981L0.0859375 30.9747H10.1029L19.7436 21.1981H9.30339Z" fill="#D23232"/>
<path d="M19.7436 20.2116L10.1029 10.4821H0.0859375L9.30339 20.2116H19.7436Z" fill="#D23232"/>
<path d="M31.3598 31.5863L21.625 21.9507V32.3853L31.3598 41.5979V31.5863Z" fill="#E9EAED"/>
<path d="M20.6373 21.9507L10.8555 31.5863V41.5979L20.6373 32.3853V21.9507Z" fill="#E9EAED"/>
</svg>
