<svg width="43" height="42" viewBox="0 0 43 42" fill="none" xmlns="http://www.w3.org/2000/svg">
<path d="M31.3129 0L21.5781 9.21256V19.6472L31.3129 10.0116V0Z" fill="#E9EAED"/>
<path d="M20.5943 9.21256L10.8125 0V10.0116L20.5943 19.6472V9.21256Z" fill="#E9EAED"/>
<path d="M22.4297 21.1982L32.0704 30.9748H42.0873L32.8699 21.1982H22.4297Z" fill="#E9EAED"/>
<path d="M32.8699 20.2115L42.0873 10.4819H32.0704L22.4297 20.2115H32.8699Z" fill="#D23232"/>
<path d="M9.26042 21.1981L0.0429688 30.9747H10.0599L19.7006 21.1981H9.26042Z" fill="#D23232"/>
<path d="M19.7006 20.2116L10.0599 10.4821H0.0429688L9.26042 20.2116H19.7006Z" fill="#E9EAED"/>
<path d="M31.3129 31.5863L21.5781 21.9507V32.3853L31.3129 41.5979V31.5863Z" fill="#E9EAED"/>
<path d="M20.5943 21.9507L10.8125 31.5863V41.5979L20.5943 32.3853V21.9507Z" fill="#E9EAED"/>
</svg>
