<svg width="43" height="42" viewBox="0 0 43 42" fill="none" xmlns="http://www.w3.org/2000/svg">
<path d="M31.2738 0L21.5391 9.21256V19.6472L31.2738 10.0116V0Z" fill="#414BF0"/>
<path d="M20.5513 9.21256L10.7695 0V10.0116L20.5513 19.6472V9.21256Z" fill="#E9EAED"/>
<path d="M22.3828 21.1982L32.0235 30.9748H42.0404L32.823 21.1982H22.3828Z" fill="#E9EAED"/>
<path d="M32.823 20.2115L42.0404 10.4819H32.0235L22.3828 20.2115H32.823Z" fill="#E9EAED"/>
<path d="M9.21745 21.1982L0 30.9748H10.0169L19.6576 21.1982H9.21745Z" fill="#E9EAED"/>
<path d="M19.6576 20.2115L10.0169 10.4819H0L9.21745 20.2115H19.6576Z" fill="#E9EAED"/>
<path d="M31.2738 31.5863L21.5391 21.9507V32.3853L31.2738 41.5979V31.5863Z" fill="#E9EAED"/>
<path d="M20.5513 21.9507L10.7695 31.5863V41.5979L20.5513 32.3853V21.9507Z" fill="#414BF0"/>
</svg>
