<svg width="16" height="16" viewBox="0 0 16 16" fill="none" xmlns="http://www.w3.org/2000/svg">
<path d="M10.794 1.33337H5.20732C2.78065 1.33337 1.33398 2.78004 1.33398 5.20671V10.7934C1.33398 13.22 2.78065 14.6667 5.20732 14.6667H10.794C13.2207 14.6667 14.6673 13.22 14.6673 10.7934V5.20671C14.6673 2.78004 13.2207 1.33337 10.794 1.33337ZM6.64732 9.93337L5.14732 11.4334C5.04732 11.5334 4.92065 11.58 4.79398 11.58C4.66732 11.58 4.53398 11.5334 4.44065 11.4334L3.94065 10.9334C3.74065 10.74 3.74065 10.42 3.94065 10.2267C4.13398 10.0334 4.44732 10.0334 4.64732 10.2267L4.79398 10.3734L5.94065 9.22671C6.13398 9.03337 6.44732 9.03337 6.64732 9.22671C6.84065 9.42004 6.84065 9.74004 6.64732 9.93337ZM6.64732 5.26671L5.14732 6.76671C5.04732 6.86671 4.92065 6.91337 4.79398 6.91337C4.66732 6.91337 4.53398 6.86671 4.44065 6.76671L3.94065 6.26671C3.74065 6.07337 3.74065 5.75337 3.94065 5.56004C4.13398 5.36671 4.44732 5.36671 4.64732 5.56004L4.79398 5.70671L5.94065 4.56004C6.13398 4.36671 6.44732 4.36671 6.64732 4.56004C6.84065 4.75337 6.84065 5.07337 6.64732 5.26671ZM11.7073 11.08H8.20732C7.93398 11.08 7.70732 10.8534 7.70732 10.58C7.70732 10.3067 7.93398 10.08 8.20732 10.08H11.7073C11.9873 10.08 12.2073 10.3067 12.2073 10.58C12.2073 10.8534 11.9873 11.08 11.7073 11.08ZM11.7073 6.41337H8.20732C7.93398 6.41337 7.70732 6.18671 7.70732 5.91337C7.70732 5.64004 7.93398 5.41337 8.20732 5.41337H11.7073C11.9873 5.41337 12.2073 5.64004 12.2073 5.91337C12.2073 6.18671 11.9873 6.41337 11.7073 6.41337Z" fill="#969FB7"/>
</svg>
