<svg width="29" height="33" viewBox="0 0 29 33" fill="none" xmlns="http://www.w3.org/2000/svg">
<path fill-rule="evenodd" clip-rule="evenodd" d="M4.11111 23.6439C6.80224 26.299 12.7445 31.7123 12.7445 31.7123C13.4587 32.365 14.6118 32.3711 15.3242 31.7195C15.3242 31.7195 21.1733 26.3979 23.9647 23.6439C29.4466 18.2354 29.4466 9.46519 23.9647 4.05684C18.4822 -1.35228 9.59364 -1.35228 4.1119 4.05684C-1.37063 9.46534 -1.37063 18.2355 4.1119 23.6439L4.11111 23.6439Z" fill="#1E1E1F"/>
<path d="M18.0623 5.7804L14.2383 9.43804V13.5809L18.0623 9.75529V5.7804Z" fill="#E6E8F0"/>
<path d="M13.8503 9.43804L10.0078 5.7804V9.75529L13.8503 13.5809V9.43804Z" fill="#E6E8F0"/>
<path d="M14.5703 14.1967L18.3574 18.0782H22.2923L18.6715 14.1967H14.5703Z" fill="white"/>
<path d="M18.6715 13.8048L22.2923 9.94189H18.3574L14.5703 13.8048H18.6715Z" fill="white"/>
<path d="M9.39819 14.1966L5.77734 18.0782H9.71224L13.4994 14.1966H9.39819Z" fill="white"/>
<path d="M13.4994 13.8048L9.71224 9.94189H5.77734L9.39819 13.8048H13.4994Z" fill="white"/>
<path d="M18.0623 18.3208L14.2383 14.4952V18.6381L18.0623 22.2957V18.3208Z" fill="#E6E8F0"/>
<path d="M13.8503 14.4952L10.0078 18.3208V22.2957L13.8503 18.6381V14.4952Z" fill="#E6E8F0"/>
</svg>
