<svg width="16" height="16" viewBox="0 0 16 16" fill="none" xmlns="http://www.w3.org/2000/svg">
<path d="M6.10026 4.99329C5.72693 4.99329 5.43359 5.29329 5.43359 5.65995C5.43359 6.02662 5.73359 6.32662 6.10026 6.32662C6.46693 6.32662 6.76693 6.02662 6.76693 5.65995C6.76693 5.29329 6.46693 4.99329 6.10026 4.99329Z" fill="#969FB7"/>
<path d="M14.3073 3.36004C13.7473 2.06004 12.514 1.33337 10.794 1.33337H5.20732C3.06732 1.33337 1.33398 3.06671 1.33398 5.20671V10.7934C1.33398 12.5134 2.06065 13.7467 3.36065 14.3067C3.48732 14.36 3.63398 14.3267 3.72732 14.2334L14.234 3.72671C14.334 3.62671 14.3673 3.48004 14.3073 3.36004ZM7.02065 8.16004C6.76065 8.41337 6.42065 8.53337 6.08065 8.53337C5.74065 8.53337 5.40065 8.40671 5.14065 8.16004C4.46065 7.52004 3.71398 6.50004 4.00065 5.28671C4.25398 4.18671 5.22732 3.69337 6.08065 3.69337C6.93398 3.69337 7.90732 4.18671 8.16065 5.29337C8.44065 6.50004 7.69398 7.52004 7.02065 8.16004Z" fill="#969FB7"/>
<path d="M12.9793 13.6867C13.1259 13.8334 13.1059 14.0734 12.9259 14.1734C12.3393 14.5001 11.6259 14.6667 10.7926 14.6667H5.20595C5.01261 14.6667 4.93261 14.4401 5.06595 14.3067L9.09261 10.2801C9.22595 10.1467 9.43261 10.1467 9.56595 10.2801L12.9793 13.6867Z" fill="#969FB7"/>
<path d="M14.6672 5.20668V10.7933C14.6672 11.6267 14.5005 12.3467 14.1738 12.9267C14.0738 13.1067 13.8338 13.12 13.6872 12.98L10.2738 9.56668C10.1405 9.43335 10.1405 9.22668 10.2738 9.09335L14.3005 5.06668C14.4405 4.93335 14.6672 5.01335 14.6672 5.20668Z" fill="#969FB7"/>
</svg>
