<svg xmlns="http://www.w3.org/2000/svg" xmlns:xlink="http://www.w3.org/1999/xlink"><defs><symbol viewBox="0 0 12 12" fill="none" id="arrow-down"><path d="M9.96004 4.4751L6.70004 7.7351C6.31504 8.1201 5.68504 8.1201 5.30004 7.7351L2.04004 4.4751" stroke="currentColor" stroke-width="1.5" stroke-miterlimit="10" stroke-linecap="round" stroke-linejoin="round" /></symbol><symbol viewBox="0 0 24 24" fill="none" id="arrow-right"><path fill-rule="evenodd" clip-rule="evenodd" d="M14.1336 18.8402C13.9457 18.6379 13.9574 18.3215 14.1598 18.1336L20.7652 12L14.1598 5.86639C13.9574 5.67849 13.9457 5.36213 14.1336 5.15977C14.3215 4.95742 14.6379 4.9457 14.8402 5.1336L21.8402 11.6336C21.9421 11.7282 22 11.861 22 12C22 12.139 21.9421 12.2718 21.8402 12.3664L14.8402 18.8664C14.6379 19.0543 14.3215 19.0426 14.1336 18.8402Z" fill="currentColor" /><path fill-rule="evenodd" clip-rule="evenodd" d="M21 12C21 12.2761 20.7761 12.5 20.5 12.5L2.5 12.5C2.22386 12.5 2 12.2761 2 12C2 11.7239 2.22386 11.5 2.5 11.5L20.5 11.5C20.7761 11.5 21 11.7239 21 12Z" fill="currentColor" /></symbol><symbol viewBox="0 0 33 34" fill="none" id="f"><path d="M13.9612 30.1993H18.7957V18.1543H22.8382L23.4487 13.4683H18.7957V10.4653C18.7957 9.11232 19.1752 8.18832 21.1222 8.18832H23.6137V3.98082C23.1847 3.93132 21.7162 3.79932 20.0002 3.79932C16.4032 3.79932 13.9612 5.99382 13.9612 10.0033V13.4683H9.90222V18.1543H13.9612V30.1993Z" fill="currentColor" /></symbol><symbol viewBox="0 0 28 29" fill="none" id="vk"><g clip-path="url(#vk_clip0_448_6938)"><path d="M15.3337 23.6562C6.2049 23.6562 0.998082 17.6385 0.781128 7.625H5.35386C5.50406 14.9747 8.87511 18.0878 11.5453 18.7297V7.625H15.8512V13.9637C18.488 13.6909 21.258 10.8024 22.1926 7.625H26.4984C25.7808 11.5405 22.7768 14.4291 20.6406 15.6166C22.7768 16.5794 26.1982 19.0988 27.4999 23.6562H22.7601C21.7421 20.6073 19.2056 18.2483 15.8512 17.9274V23.6562H15.3337Z" fill="currentColor" /></g><defs></defs></symbol><clipPath id="vk_clip0_448_6938"><rect fill="currentColor" transform="translate(0.499878 0.5)" /></clipPath></defs></svg>